<svg version="1.1" xmlns="http://www.w3.org/2000/svg" xmlns:xlink="http://www.w3.org/1999/xlink" width="1163" height="923"><defs></defs><g><g transform="translate(-894,-78) scale(1,1)"><rect fill="#C0C0C0" stroke="none" x="1391" y="823" width="231" height="175" opacity="0.2"></rect></g><g transform="translate(-894,-78) scale(1,1)"><rect fill="#ffffff" stroke="none" x="1384" y="816" width="231" height="175"></rect></g><g transform="translate(-894,-78) scale(1,1)"><path fill="none" stroke="#000000" d="M 1384 816 L 1615 816 L 1615 991 L 1384 991 L 1384 816 Z Z" stroke-miterlimit="10"></path></g><g transform="translate(-894,-78) scale(1,1)"><path fill="none" stroke="#000000" d="M 1384 841 L 1615 841" stroke-miterlimit="10"></path></g><g transform="translate(-894,-78) scale(1,1)"><path fill="none" stroke="#000000" d="M 1384 894 L 1615 894" stroke-miterlimit="10"></path></g><g transform="translate(-894,-78) scale(1,1)"><g><path fill="none" stroke="none"></path><text fill="#000000" stroke="none" font-family="Arial" font-size="13px" font-style="normal" font-weight="bold" text-decoration="none" x="1487.5" y="835.5">Grid</text></g></g><g transform="translate(-894,-78) scale(1,1)"><g><path fill="none" stroke="none"></path><text fill="#000000" stroke="none" font-family="Arial" font-size="13px" font-style="normal" font-weight="normal" text-decoration="none" x="1389" y="858.5">-grille: **int</text></g></g><g transform="translate(-894,-78) scale(1,1)"><g><path fill="none" stroke="none"></path><text fill="#000000" stroke="none" font-family="Arial" font-size="13px" font-style="normal" font-weight="normal" text-decoration="none" x="1389" y="873.5">-WIDTH: int {readOnly}</text></g></g><g transform="translate(-894,-78) scale(1,1)"><g><path fill="none" stroke="none"></path><text fill="#000000" stroke="none" font-family="Arial" font-size="13px" font-style="normal" font-weight="normal" text-decoration="none" x="1389" y="888.5">-HEIGHT: int {readOnly}</text></g></g><g transform="translate(-894,-78) scale(1,1)"><g><path fill="none" stroke="none"></path><text fill="#000000" stroke="none" font-family="Arial" font-size="13px" font-style="normal" font-weight="normal" text-decoration="none" x="1389" y="911.5">+getValue(int x, int y): int</text></g></g><g transform="translate(-894,-78) scale(1,1)"><g><path fill="none" stroke="none"></path><text fill="#000000" stroke="none" font-family="Arial" font-size="13px" font-style="normal" font-weight="normal" text-decoration="none" x="1389" y="926.5">+setValue(int x, int y, int value): void</text></g></g><g transform="translate(-894,-78) scale(1,1)"><g><path fill="none" stroke="none"></path><text fill="#000000" stroke="none" font-family="Arial" font-size="13px" font-style="normal" font-weight="normal" text-decoration="none" x="1389" y="941.5">+getWIDTH(): int</text></g></g><g transform="translate(-894,-78) scale(1,1)"><g><path fill="none" stroke="none"></path><text fill="#000000" stroke="none" font-family="Arial" font-size="13px" font-style="normal" font-weight="normal" text-decoration="none" x="1389" y="956.5">+getHEIGHT(): int</text></g></g><g transform="translate(-894,-78) scale(1,1)"><g><path fill="none" stroke="none"></path><text fill="#000000" stroke="none" font-family="Arial" font-size="13px" font-style="normal" font-weight="normal" text-decoration="none" x="1389" y="971.5">+fill(int value): void</text></g></g><g transform="translate(-894,-78) scale(1,1)"><g><path fill="none" stroke="none"></path><text fill="#000000" stroke="none" font-family="Arial" font-size="13px" font-style="normal" font-weight="normal" text-decoration="none" x="1389" y="986.5">+affichage(): void</text></g></g><g transform="translate(-894,-78) scale(1,1)"><rect fill="#C0C0C0" stroke="none" x="1383" y="471" width="263" height="151" opacity="0.2"></rect></g><g transform="translate(-894,-78) scale(1,1)"><rect fill="#ffffff" stroke="none" x="1376" y="464" width="263" height="151"></rect></g><g transform="translate(-894,-78) scale(1,1)"><path fill="none" stroke="#000000" d="M 1376 464 L 1639 464 L 1639 615 L 1376 615 L 1376 464 Z Z" stroke-miterlimit="10"></path></g><g transform="translate(-894,-78) scale(1,1)"><path fill="none" stroke="#000000" d="M 1376 489 L 1639 489" stroke-miterlimit="10"></path></g><g transform="translate(-894,-78) scale(1,1)"><path fill="none" stroke="#000000" d="M 1376 499 L 1639 499" stroke-miterlimit="10"></path></g><g transform="translate(-894,-78) scale(1,1)"><g><path fill="none" stroke="none"></path><text fill="#000000" stroke="none" font-family="Arial" font-size="13px" font-style="normal" font-weight="bold" text-decoration="none" x="1486" y="483.5">Takuzu</text></g></g><g transform="translate(-894,-78) scale(1,1)"><g><path fill="none" stroke="none"></path><text fill="#000000" stroke="none" font-family="Arial" font-size="13px" font-style="normal" font-weight="normal" text-decoration="none" x="1381" y="516.5">+checkColonne(int x): bool</text></g></g><g transform="translate(-894,-78) scale(1,1)"><g><path fill="none" stroke="none"></path><text fill="#000000" stroke="none" font-family="Arial" font-size="13px" font-style="normal" font-weight="normal" text-decoration="none" x="1381" y="531.5">+checkLigne(int y): bool</text></g></g><g transform="translate(-894,-78) scale(1,1)"><g><path fill="none" stroke="none"></path><text fill="#000000" stroke="none" font-family="Arial" font-size="13px" font-style="normal" font-weight="normal" text-decoration="none" x="1381" y="546.5">+play(int x, int y, int value): void</text></g></g><g transform="translate(-894,-78) scale(1,1)"><g><path fill="none" stroke="none"></path><text fill="#000000" stroke="none" font-family="Arial" font-size="13px" font-style="normal" font-weight="normal" text-decoration="none" x="1381" y="561.5">+affichage(): void</text></g></g><g transform="translate(-894,-78) scale(1,1)"><path fill="none" stroke="#000000" d="M 1505 616 L 1501 815" stroke-miterlimit="10"></path></g><g transform="translate(-894,-78) scale(1,1)"><path fill="#000000" stroke="none" d="M 1496.9955659899395 804.7547812000392 L 1501 815 L 1505.4129012448643 804.92397386848 L 1501.4421217490265 793.0044429859338"></path></g><g transform="translate(-894,-78) scale(1,1)"><path fill="none" stroke="#000000" d="M 1496.9955659899395 804.7547812000392 L 1501 815 L 1505.4129012448643 804.92397386848 L 1501.4421217490265 793.0044429859338 L 1496.9955659899395 804.7547812000392" stroke-miterlimit="10"></path></g><g transform="translate(-894,-78) scale(1,1)"><g><path fill="none" stroke="none"></path><text fill="#000000" stroke="none" font-family="Arial" font-size="13px" font-style="normal" font-weight="normal" text-decoration="none" x="1488.614990234375" y="643.5">1</text></g></g><g transform="translate(-894,-78) scale(1,1)"><g><path fill="none" stroke="none"></path><text fill="#000000" stroke="none" font-family="Arial" font-size="13px" font-style="normal" font-weight="normal" text-decoration="none" x="1484.614990234375" y="799.5">1</text></g></g><g transform="translate(-894,-78) scale(1,1)"><path fill="#C0C0C0" stroke="none" d="M 1443 170.5 C 1443 133.220776 1473.2207760000001 103 1510.5 103 C 1547.7792239999999 103 1578 133.220776 1578 170.5 C 1578 207.779224 1547.7792239999999 238 1510.5 238 C 1473.2207760000001 238 1443 207.779224 1443 170.5 Z" opacity="0.2"></path></g><g transform="translate(-894,-78) scale(1,1)"><path fill="#ffffff" stroke="none" d="M 1436 163.5 C 1436 126.220776 1466.2207760000001 96 1503.5 96 C 1540.7792239999999 96 1571 126.220776 1571 163.5 C 1571 200.779224 1540.7792239999999 231 1503.5 231 C 1466.2207760000001 231 1436 200.779224 1436 163.5 Z"></path></g><g transform="translate(-894,-78) scale(1,1)"><path fill="none" stroke="#000000" d="M 1436 163.5 C 1436 126.220776 1466.2207760000001 96 1503.5 96 C 1540.7792239999999 96 1571 126.220776 1571 163.5 C 1571 200.779224 1540.7792239999999 231 1503.5 231 C 1466.2207760000001 231 1436 200.779224 1436 163.5 Z" stroke-miterlimit="10"></path></g><g transform="translate(-894,-78) scale(1,1)"><path fill="none" stroke="#000000" d="M 1376 256 L 1631 256" stroke-miterlimit="10"></path></g><g transform="translate(-894,-78) scale(1,1)"><g><path fill="none" stroke="none"></path><text fill="#000000" stroke="none" font-family="Arial" font-size="13px" font-style="normal" font-weight="bold" text-decoration="none" x="1481.5" y="250.5">Solveur</text></g></g><g transform="translate(-894,-78) scale(1,1)"><g><path fill="none" stroke="none"></path><text fill="#000000" stroke="none" font-family="Arial" font-size="13px" font-style="normal" font-weight="normal" text-decoration="none" x="1381" y="273.5">+resoudre(): bool</text></g></g><g transform="translate(-894,-78) scale(1,1)"><rect fill="#C0C0C0" stroke="none" x="911" y="455" width="247" height="175" opacity="0.2"></rect></g><g transform="translate(-894,-78) scale(1,1)"><rect fill="#ffffff" stroke="none" x="904" y="448" width="247" height="175"></rect></g><g transform="translate(-894,-78) scale(1,1)"><path fill="none" stroke="#000000" d="M 904 448 L 1151 448 L 1151 623 L 904 623 L 904 448 Z Z" stroke-miterlimit="10"></path></g><g transform="translate(-894,-78) scale(1,1)"><path fill="none" stroke="#000000" d="M 904 473 L 1151 473" stroke-miterlimit="10"></path></g><g transform="translate(-894,-78) scale(1,1)"><path fill="none" stroke="#000000" d="M 904 483 L 1151 483" stroke-miterlimit="10"></path></g><g transform="translate(-894,-78) scale(1,1)"><g><path fill="none" stroke="none"></path><text fill="#000000" stroke="none" font-family="Arial" font-size="13px" font-style="normal" font-weight="bold" text-decoration="none" x="1015.5" y="467.5">IHM</text></g></g><g transform="translate(-894,-78) scale(1,1)"><path fill="none" stroke="#000000" d="M 1504 280 L 1506 463" stroke-miterlimit="10"></path></g><g transform="translate(-894,-78) scale(1,1)"><path fill="none" stroke="#000000" d="M 1501.6796727662027 452.88393492543133 L 1506 463 L 1510.0982055291888 452.79192910288504" stroke-miterlimit="10"></path></g><g transform="translate(-894,-78) scale(1,1)"><path fill="none" stroke="#000000" d="M 1152 536 L 1375 538" stroke-miterlimit="10"></path></g><g transform="translate(-894,-78) scale(1,1)"><path fill="none" stroke="#000000" d="M 1364.799981835793 542.1182070673833 L 1375 538 L 1364.8754858441862 533.6995101315403" stroke-miterlimit="10"></path></g><g transform="translate(-894,-78) scale(1,1)"><rect fill="#C0C0C0" stroke="none" x="1823" y="95" width="231" height="135" opacity="0.2"></rect></g><g transform="translate(-894,-78) scale(1,1)"><rect fill="#ffffff" stroke="none" x="1816" y="88" width="231" height="135"></rect></g><g transform="translate(-894,-78) scale(1,1)"><path fill="none" stroke="#000000" d="M 1816 88 L 2047 88 L 2047 223 L 1816 223 L 1816 88 Z Z" stroke-miterlimit="10"></path></g><g transform="translate(-894,-78) scale(1,1)"><path fill="none" stroke="#000000" d="M 1816 113 L 2047 113" stroke-miterlimit="10"></path></g><g transform="translate(-894,-78) scale(1,1)"><path fill="none" stroke="#000000" d="M 1816 123 L 2047 123" stroke-miterlimit="10"></path></g><g transform="translate(-894,-78) scale(1,1)"><g><path fill="none" stroke="none"></path><text fill="#000000" stroke="none" font-family="Arial" font-size="13px" font-style="normal" font-weight="bold" text-decoration="none" x="1899.5" y="107.5">BruteForce</text></g></g><g transform="translate(-894,-78) scale(1,1)"><path fill="none" stroke="#000000" d="M 1815 164 L 1632 177" stroke-miterlimit="10"></path></g><g transform="translate(-894,-78) scale(1,1)"><path fill="#FFFFFF" stroke="none" d="M 1651.6776875694213 167.16187965512515 L 1632 177 L 1652.8708279283985 183.9576247084177"></path></g><g transform="translate(-894,-78) scale(1,1)"><path fill="none" stroke="#000000" d="M 1651.6776875694213 167.16187965512515 L 1632 177 L 1652.8708279283985 183.9576247084177 L 1651.6776875694213 167.16187965512515" stroke-miterlimit="10"></path></g></g></svg>